<svg xmlns="http://www.w3.org/2000/svg" width="112.089" height="110.798"><path d="M107.711 110.799H71.538l-17.366-1.269-17.721 1.27H4.378A4.378 4.378 0 010 106.42V81.659a4.378 4.378 0 014.378-4.378h103.333a4.378 4.378 0 014.378 4.378v24.761a4.379 4.379 0 01-4.378 4.379z" fill="#fff0af"/><path d="M107.711 77.281h-1.987v22.656a4.5 4.5 0 01-4.5 4.5H0v1.987a4.378 4.378 0 004.378 4.378h32.073l17.544-1.283 17.544 1.283h36.173a4.378 4.378 0 004.378-4.378V81.659a4.379 4.379 0 00-4.379-4.378z" fill="#ffe07d"/><path d="M112.089 99.402H93.34V77.29h-3.372v22.112H44.95V77.29h-3.371v13.818H0v3.372h25.913l-7.187 16.317h3.685L29.6 94.48h11.979v10.878h3.371v-2.584h45.018v8.023h3.372v-8.024h18.75z" fill="#ffd064"/><path d="M89.968 104.434h3.372v6.365h-3.372zm-64.754 0h-3.685l-2.8 6.365h3.685zm86.875-5.029h-6.365v.535a4.476 4.476 0 01-1.01 2.837h7.375z" fill="#ffc250"/><path d="M27.652 83.788v-4.965a5.78 5.78 0 00-5.585-5.827 5.667 5.667 0 00-2.316.446.453.453 0 01-.6-.259 5.69 5.69 0 00-10.643 0 .453.453 0 01-.6.259A5.691 5.691 0 000 78.685v5.1a1.124 1.124 0 001.124 1.124h25.4a1.124 1.124 0 001.124-1.124zm39.425 15.094a5.666 5.666 0 00-2.316.446.453.453 0 01-.6-.259 5.684 5.684 0 00-9.814-1.471.444.444 0 01-.7 0 5.684 5.684 0 00-9.813 1.47.453.453 0 01-.6.259 5.691 5.691 0 00-7.9 5.244v5.1a1.124 1.124 0 001.124 1.124h35.087a1.124 1.124 0 001.124-1.124v-4.959a5.78 5.78 0 00-5.585-5.827z" fill="#95d6a4"/><path d="M23.724 73.282a5.9 5.9 0 01.329 1.943v4.965a1.124 1.124 0 01-1.124 1.124H0v2.475a1.124 1.124 0 001.124 1.124h25.4a1.124 1.124 0 001.124-1.124v-4.965a5.847 5.847 0 00-3.924-5.542zm45.01 25.885a5.9 5.9 0 01.329 1.943v4.965a1.124 1.124 0 01-1.124 1.124H35.327v2.475a1.124 1.124 0 001.124 1.124h35.087a1.124 1.124 0 001.124-1.124v-4.965a5.847 5.847 0 00-3.928-5.542z" fill="#78c2a4"/><path d="M64.478 30.107c0 19.738-20.248 45.395-27.534 53.988a3.372 3.372 0 01-5.146 0c-7.286-8.593-27.534-34.25-27.534-53.988a30.107 30.107 0 0160.213 0z" fill="#01cedb"/><path d="M34.374 0a30.208 30.208 0 00-6.443.693 30.116 30.116 0 0123.664 29.413c0 16.887-14.82 38.1-23.664 49.263a185.578 185.578 0 003.87 4.725 3.372 3.372 0 005.146 0c7.286-8.593 27.534-34.25 27.534-53.988A30.107 30.107 0 0034.374 0z" fill="#00acb7"/><circle cx="10.354" cy="10.354" r="10.354" fill="#fff0af" transform="translate(24.019 19.6)"/><path d="M37.968 20.242a10.359 10.359 0 01-13.307 13.307 10.356 10.356 0 1013.307-13.307z" fill="#ffe07d"/><path d="M85.486 69.278l-.819.835a8.2 8.2 0 01-11.7 0l-.819-.835a14.458 14.458 0 01-4.138-10.126v-7.18h21.617v7.18a14.458 14.458 0 01-4.141 10.126z" fill="#ffcbbe"/><path d="M85.486 69.278l-.819.835a8.2 8.2 0 01-11.7 0l-.819-.835a14.458 14.458 0 01-4.138-10.126v-7.18h21.617v7.18a14.458 14.458 0 01-4.141 10.126z" fill="#ffcbbe"/><path d="M89.624 53.5v-5.377a5.335 5.335 0 00-5.335-5.335H73.342a5.335 5.335 0 00-5.335 5.335V53.5z" fill="#8b5e5e"/><path d="M100.728 88.861a1.161 1.161 0 001.127-1.44 19.487 19.487 0 00-18.9-14.748h-7.758a19.487 19.487 0 00-18.9 14.748 1.161 1.161 0 001.127 1.44z" fill="#335995"/><path d="M94.355 88.861h6.372a1.161 1.161 0 001.127-1.44 19.487 19.487 0 00-18.9-14.748h-7.78a19.485 19.485 0 0119.181 16.188z" fill="#21386b"/><path d="M82.494 78.947H75.66a3.284 3.284 0 01-3.284-3.284V65.545h13.402v10.118a3.284 3.284 0 01-3.284 3.284z" fill="#eaac9d"/><path d="M81.67 65.546v9.923a3.479 3.479 0 01-3.479 3.479h4.3a3.284 3.284 0 003.284-3.284V65.546z" fill="#df9380"/><path d="M90.048 55.995h-.424v-2.412l-.876-1.611H68.664l-.657 1.528V56h-.423a3.2 3.2 0 00-3.2 3.2v1.041a3.743 3.743 0 003.743 3.743h.711a14.457 14.457 0 003.308 5.3l.819.835a8.16 8.16 0 003.474 2.106s1.376-.1 2.315-.148c.833-.042 2.138.277 2.93-.018a8.166 8.166 0 002.983-1.94l.819-.835a14.457 14.457 0 003.308-5.3h.711a3.743 3.743 0 003.743-3.743V59.2a3.2 3.2 0 00-3.2-3.205z" fill="#ffcbbe"/><path d="M90.048 55.995h-.424v-2.412l-.657-1.611h-4.1v7.18a14.456 14.456 0 01-4.138 10.126l-.819.835a8.156 8.156 0 01-3.474 2.105 8.2 8.2 0 008.227-2.105l.819-.835a14.456 14.456 0 003.308-5.3h.711a3.743 3.743 0 003.743-3.743v-1.041a3.2 3.2 0 00-3.196-3.199z" fill="#eaac9d"/><path d="M89.624 53.5v-5.377a5.335 5.335 0 00-5.335-5.335H73.342a5.335 5.335 0 00-5.335 5.335V53.5z" fill="#7a402b"/><path d="M84.289 42.788h-4.753a5.335 5.335 0 015.335 5.335V53.5h4.753v-5.377a5.335 5.335 0 00-5.335-5.335z" fill="#523838"/></svg>