<svg xmlns="http://www.w3.org/2000/svg" width="108.856" height="109"><path d="M26.785 30.402l8.772-11.776H16.646l8.771 11.776a.852.852 0 001.368 0z" fill="#e4f6ff"/><path d="M36.24 24.292h-4.906l-5.2-1.438-5.265 1.438h-4.906a4.045 4.045 0 01-4.045-4.045V4.476A4.258 4.258 0 0116.176.218H36.24a4.045 4.045 0 014.045 4.045V20.25a4.045 4.045 0 01-4.045 4.042z" fill="#f4fbff"/><path d="M36.24.218h-.519v15.146a4.367 4.367 0 01-4.367 4.367H11.918v.519a4.045 4.045 0 004.045 4.042H36.24a4.045 4.045 0 004.045-4.045V4.263A4.045 4.045 0 0036.24.218z" fill="#e4f6ff"/><path d="M83.337 50.362a.436.436 0 00-.611-.493c-1.915.9-6.515 3.6-7.224 9.039-.786 6.031 3.933 9.322-.22 12.836-3.968 3.358-10.3-.607-12.36-6.2-2.065-5.609-1.416-12.964 4.188-17.288 7.613-5.873 4-10.157 2.1-17.592-2.1-8.229 2.109-9.682-.053-17.768C66.893 4.414 55.216.809 51.51.01a.435.435 0 00-.446.68 20.108 20.108 0 01-1.435 24.659c-5.24 5.825-11.764 7.308-18.626 13.056-10.7 8.96-15.092 20.5-13.982 36.063a35.993 35.993 0 0071.829 1.584c0-17.519-7.137-18.493-5.513-25.69z" fill="#ffd064"/><path d="M83.336 50.362a.436.436 0 00-.611-.493c-1.656.779-5.319 2.909-6.738 6.985 1.684 3.613 4.565 8.064 4.565 19.2a36 36 0 01-31.714 32.709 36 36 0 0040.009-32.709c.001-17.521-7.134-18.494-5.511-25.692z" fill="#ffc250"/><path d="M60.956 75.943a.436.436 0 00-.837-.069 19.231 19.231 0 01-3.023 5.666 3.8 3.8 0 01-2.918 1.557 2.43 2.43 0 01-2.176-1.378c-.7-1.432.072-2.523 1.291-3.742a6.575 6.575 0 002.4-5.63c-.12-5.031-5.075-7.84-4.154-11.706s5.1-4.439 4.264-9.829a7.949 7.949 0 00-3.749-5.883.437.437 0 00-.614.571 4.734 4.734 0 01.211 4.034c-1.2 2.725-6.548 3.194-8.465 8.624-.79 2.238.616 4.542-2.635 8.385-3.863 4.567-7.347 9.161-6.788 17.887.56 8.746 8.708 16.508 17.472 16.508a16.51 16.51 0 0016.426-15.206c.189-3.281-2.295-3.751-4.073-4.816-1.607-.958-2.32-3.295-2.632-4.973z" fill="#01cedb"/><path d="M63.583 80.918a3.424 3.424 0 01-.492-.364 5.672 5.672 0 010 .609 16.51 16.51 0 01-16.429 15.208 16.892 16.892 0 01-9.712-3.252c3.273 4.613 8.647 7.822 14.28 7.822a16.51 16.51 0 0016.426-15.206c.191-3.282-2.295-3.752-4.073-4.817z" fill="#049ea7"/><path d="M95.355 49.005l8.773-11.776H85.217l8.776 11.776a.852.852 0 001.366 0z" fill="#e4f6ff"/><path d="M104.811 42.898h-4.863l-5.276-1.828-5.232 1.828h-4.906a4.045 4.045 0 01-4.045-4.045V23.079a4.258 4.258 0 014.258-4.258h20.064a4.045 4.045 0 014.045 4.045v15.987a4.045 4.045 0 01-4.045 4.045z" fill="#f4fbff"/><path d="M104.811 18.821h-.519v15.146a4.367 4.367 0 01-4.367 4.367H80.489v.519a4.045 4.045 0 004.045 4.045h20.277a4.045 4.045 0 004.045-4.045V22.866a4.045 4.045 0 00-4.045-4.045z" fill="#e4f6ff"/><path d="M98.926 25.314a4.218 4.218 0 00-4.18 2.065.084.084 0 01-.147 0 4.218 4.218 0 10-5.617 5.848 13.9 13.9 0 012.76 1.853l.466.413a15.1 15.1 0 012.136 2.337.4.4 0 00.649 0 15.1 15.1 0 012.136-2.337l.466-.413a13.9 13.9 0 012.76-1.854 4.219 4.219 0 00-1.433-7.917z" fill="#01cedb"/><path d="M14.867 72.216l8.772-11.781H4.728l8.773 11.776a.852.852 0 001.366.005z" fill="#e4f6ff"/><path d="M24.322 66.109h-4.846l-5.292-1.988-5.276 1.988H4.045A4.045 4.045 0 010 62.064v-15.77a4.258 4.258 0 014.262-4.262h20.06a4.045 4.045 0 014.045 4.045v15.987a4.045 4.045 0 01-4.045 4.045z" fill="#f4fbff"/><path d="M24.322 42.032h-.52v15.146a4.367 4.367 0 01-4.367 4.367H0v.519a4.045 4.045 0 004.045 4.045h20.277a4.045 4.045 0 004.04-4.045V46.077a4.045 4.045 0 00-4.045-4.045z" fill="#e4f6ff"/><path d="M18.436 48.526a4.218 4.218 0 00-4.18 2.065.084.084 0 01-.147 0 4.218 4.218 0 10-5.613 5.852 13.9 13.9 0 012.759 1.853l.466.413a15.106 15.106 0 012.136 2.337.4.4 0 00.649 0 15.116 15.116 0 012.138-2.338l.466-.413a13.905 13.905 0 012.76-1.854 4.219 4.219 0 00-1.433-7.917zm6.061-28.279h-4.759a1.638 1.638 0 01-1.638-1.638V5.922a1.638 1.638 0 013.276 0v11.05h3.122a1.638 1.638 0 010 3.276zm7.929 0a1.638 1.638 0 01-1.638-1.638V7.563h-3.122a1.638 1.638 0 010-3.276h4.76a1.638 1.638 0 011.638 1.638V18.61a1.638 1.638 0 01-1.638 1.637z" fill="#01cedb"/><path d="M22.409 10.128a1.633 1.633 0 01-1.158-.48l-1.474-1.473-1.468 1.473a1.638 1.638 0 01-2.316-2.316l2.626-2.627a1.638 1.638 0 012.316 0l2.627 2.627a1.638 1.638 0 01-1.158 2.8zm10.017 10.16a1.633 1.633 0 01-1.158-.48l-2.626-2.627a1.638 1.638 0 012.316-2.316l1.469 1.469 1.469-1.469a1.638 1.638 0 012.316 2.316l-2.628 2.631a1.633 1.633 0 01-1.158.48z" fill="#01cedb"/></svg>