<svg xmlns="http://www.w3.org/2000/svg" width="112.685" height="121.567"><path d="M104.537 62.071H51.862a8.148 8.148 0 00-8.148 8.148v29.7a8.148 8.148 0 008.148 8.148h14.076a2.353 2.353 0 011.879.936l8.938 11.843a1.811 1.811 0 002.891 0l8.938-11.843a2.354 2.354 0 011.879-.936h14.076a8.148 8.148 0 008.148-8.148v-29.7a8.148 8.148 0 00-8.148-8.148z" fill="#01cedb"/><path d="M106.203 62.242a8.19 8.19 0 01.171 1.666v34.771a3.078 3.078 0 01-3.078 3.078H45.551a8.19 8.19 0 01-1.666-.171 8.15 8.15 0 007.977 6.482h14.076a2.354 2.354 0 011.879.936l8.938 11.843a1.811 1.811 0 002.891 0l8.938-11.843a2.354 2.354 0 011.879-.936h14.076a8.148 8.148 0 008.148-8.148v-29.7a8.15 8.15 0 00-6.482-7.977z" fill="#02aeb9"/><path d="M85.404 98.895H70.996a6.448 6.448 0 01-6.448-6.448V78.041a6.448 6.448 0 016.448-6.448h14.407a6.448 6.448 0 016.448 6.448v14.407a6.448 6.448 0 01-6.447 6.447z" fill="#fff0af"/><path d="M87.576 71.969a6.436 6.436 0 01.377 2.175v14.407a6.448 6.448 0 01-6.448 6.448H67.101a6.437 6.437 0 01-2.175-.377 6.449 6.449 0 006.07 4.273h14.407a6.448 6.448 0 006.448-6.448V78.04a6.45 6.45 0 00-4.275-6.071z" fill="#ffe07d"/><circle cx="5.073" cy="5.073" r="5.073" fill="#01cedb" transform="translate(73.127 80.17)"/><path d="M79.756 80.416a5.071 5.071 0 01-6.384 6.384 5.073 5.073 0 106.384-6.384z" fill="#02aeb9"/><path d="M90.191 0H37.516a8.148 8.148 0 00-8.148 8.148v29.7A8.148 8.148 0 0037.516 46h14.076a2.353 2.353 0 011.879.936l8.938 11.843a1.811 1.811 0 002.891 0l8.938-11.843A2.354 2.354 0 0176.115 46h14.076a8.148 8.148 0 008.148-8.148V8.148A8.148 8.148 0 0090.191 0z" fill="#4278c3"/><path d="M91.856.171a8.191 8.191 0 01.171 1.666v34.77a3.078 3.078 0 01-3.078 3.078H31.205a8.189 8.189 0 01-1.666-.171 8.15 8.15 0 007.977 6.482h14.076a2.354 2.354 0 011.879.936l8.938 11.843a1.811 1.811 0 002.891 0l8.938-11.843a2.354 2.354 0 011.879-.936h14.076a8.148 8.148 0 008.148-8.148V8.151a8.151 8.151 0 00-6.485-7.98z" fill="#335995"/><path d="M70.662 14.134h1.887a.487.487 0 00.487-.486V6.959a.487.487 0 00-.487-.487h-1.883A11.728 11.728 0 0058.938 18.2v1.707a.324.324 0 01-.324.324h-3.277a.487.487 0 00-.486.487v6.688a.487.487 0 00.486.487h3.277a.324.324 0 01.324.324v13.187a.487.487 0 00.486.486h6.688a.487.487 0 00.487-.486V28.212a.324.324 0 01.324-.324H70.2a.487.487 0 00.486-.487v-6.683a.487.487 0 00-.486-.487h-3.277a.324.324 0 01-.324-.324V18.2a4.066 4.066 0 014.063-4.066z" fill="#f4fbff"/><path d="M72.548 6.472h-1.883c-.4 0-.793.02-1.182.059a.484.484 0 01.259.427v6.688a.487.487 0 01-.487.487h-1.883a4.066 4.066 0 00-4.066 4.066v1.707a.324.324 0 00.324.324h3.277a.487.487 0 01.487.487v6.688a.487.487 0 01-.487.487h-3.279a.324.324 0 00-.324.324v13.188a.487.487 0 01-.487.487h3.292a.487.487 0 00.487-.487V28.213a.324.324 0 01.324-.324h3.277a.487.487 0 00.487-.487v-6.684a.486.486 0 00-.487-.487H66.92a.324.324 0 01-.324-.324V18.2a4.066 4.066 0 014.066-4.066h1.886a.487.487 0 00.487-.487V6.959a.487.487 0 00-.487-.487z" fill="#e4f6ff"/><path d="M60.823 36.04H8.148A8.148 8.148 0 000 44.188v29.7a8.148 8.148 0 008.148 8.152h14.075a2.353 2.353 0 011.879.936l8.938 11.843a1.811 1.811 0 002.891 0l8.938-11.843a2.354 2.354 0 011.879-.936h14.075a8.148 8.148 0 008.148-8.148v-29.7a8.148 8.148 0 00-8.148-8.152z" fill="#bed8fb"/><path d="M62.488 36.214a8.191 8.191 0 01.171 1.666v34.771a3.078 3.078 0 01-3.078 3.078H1.837a8.188 8.188 0 01-1.666-.171 8.15 8.15 0 007.977 6.482h14.075a2.354 2.354 0 011.879.936l8.938 11.843a1.811 1.811 0 002.891 0l8.938-11.843a2.354 2.354 0 011.879-.937h14.075a8.148 8.148 0 008.148-8.148v-29.7a8.151 8.151 0 00-6.482-7.977z" fill="#9dc6fb"/><path d="M45.718 65.87a15.628 15.628 0 01-1.676-.091.258.258 0 01-.157-.438 15.641 15.641 0 002.679-18.063.523.523 0 00-.905-.048 15.638 15.638 0 01-11.246 7.111.175.175 0 01-.2-.167 8.51 8.51 0 00-16.032-3.486.349.349 0 01-.309.19h-4.07a.348.348 0 00-.312.5 5.907 5.907 0 001.838 2.151.174.174 0 01-.027.3l-1.722.8a.348.348 0 00-.07.589 5.841 5.841 0 003.641 1.27.348.348 0 01.334.267 8.526 8.526 0 004.579 5.556.527.527 0 01.284.339 15.642 15.642 0 0028.961 3.153.523.523 0 00-.634-.736 15.622 15.622 0 01-4.956.8z" fill="#f4fbff"/><path d="M50.674 65.067a15.632 15.632 0 01-6.632.712.258.258 0 01-.157-.438 15.641 15.641 0 002.679-18.063.523.523 0 00-.905-.048 15.666 15.666 0 01-5.577 5.258 15.6 15.6 0 01-4.292 12.853.258.258 0 00.157.438 15.631 15.631 0 006.632-.712.523.523 0 01.634.736 15.673 15.673 0 01-9.816 7.866 15.65 15.65 0 0017.912-7.866.523.523 0 00-.635-.736z" fill="#e4f6ff"/><circle cx="2.058" cy="2.058" r="2.058" fill="#bed8fb" transform="translate(22.392 51.852)"/><circle cx="2.058" cy="2.058" r="2.058" fill="#02aeb9" transform="translate(83.505 75.666)"/></svg>