<svg xmlns="http://www.w3.org/2000/svg" width="100.417" height="100.096"><path d="M10.631 14.873l-.588 2.76v74.618a7.845 7.845 0 007.845 7.845h54.068a7.845 7.845 0 007.845-7.845V17.633l-.588-2.76z" fill="#f4fbff"/><path d="M72.623 14.873v70.2a7.845 7.845 0 01-7.845 7.845H10.707c-.215 0-.426-.011-.636-.028a7.844 7.844 0 007.817 7.209h54.068a7.845 7.845 0 007.845-7.845V17.633l-.588-2.76z" fill="#e4f6ff"/><path d="M71.956 0H18.024a7.981 7.981 0 00-7.981 7.982v9.652h69.758V7.845A7.845 7.845 0 0071.956 0z" fill="#32e4ef"/><path d="M72.592.028c.017.21.028.422.028.636v16.969h7.181V7.845A7.844 7.844 0 0072.592.028z" fill="#01cedb"/><circle cx="3.2" cy="3.2" r="3.2" fill="#01cedb" transform="translate(17.209 5.751)"/><path d="M21.372 5.899a3.2 3.2 0 01-4.013 4.015 3.2 3.2 0 104.015-4.015z" fill="#01b0bb"/><path d="M60.204 10.645H31.46a1.5 1.5 0 110-2.993h28.744a1.5 1.5 0 010 2.993zM28.727 78.983h-4.206a1.5 1.5 0 010-2.993h4.206a1.5 1.5 0 010 2.993zm-12.618 0h-4.206a1.5 1.5 0 010-2.993h4.206a1.5 1.5 0 010 2.993zm-12.618-.001h-2a1.5 1.5 0 01-1.5-1.5v-2a1.5 1.5 0 112.993 0v.5h.5a1.5 1.5 0 110 2.993zM1.5 68.575a1.5 1.5 0 01-1.5-1.5v-4.206a1.5 1.5 0 112.993 0v4.206a1.5 1.5 0 01-1.493 1.5zm0-12.618a1.5 1.5 0 01-1.5-1.5v-4.206a1.5 1.5 0 112.993 0v4.206A1.5 1.5 0 011.5 55.958zm0-12.618A1.5 1.5 0 010 41.847v-4.21a1.5 1.5 0 012.993 0v4.21A1.5 1.5 0 011.5 43.34zm0-12.617a1.5 1.5 0 01-1.5-1.5v-2a1.5 1.5 0 011.5-1.5h2a1.5 1.5 0 110 2.993H3v.5a1.5 1.5 0 01-1.5 1.5zm39.845-1.995h-4.206a1.5 1.5 0 110-2.993h4.206a1.5 1.5 0 110 2.993zm-12.618 0h-4.206a1.5 1.5 0 110-2.993h4.206a1.5 1.5 0 110 2.993zm-12.618 0h-4.206a1.5 1.5 0 110-2.993h4.206a1.5 1.5 0 010 2.993zm35.643 1.995a1.5 1.5 0 01-1.5-1.5v-.5h-.5a1.5 1.5 0 110-2.993h2a1.5 1.5 0 011.5 1.5v2a1.5 1.5 0 01-1.5 1.493zm0 25.236a1.5 1.5 0 01-1.5-1.5v-4.206a1.5 1.5 0 112.993 0v4.206a1.5 1.5 0 01-1.493 1.5zm0-12.618a1.5 1.5 0 01-1.5-1.5v-4.203a1.5 1.5 0 112.993 0v4.21a1.5 1.5 0 01-1.493 1.493z" fill="#01cedb"/><path d="M82.146 51.254l-8.024 8.024-5.306 2.88-8.831-8.831 2.88-5.306 8.024-8.024a85.772 85.772 0 018.6-7.524l12.63-9.642c4.757-3.631 10.823 2.435 7.192 7.192l-9.642 12.63a85.748 85.748 0 01-7.524 8.6z" fill="#01b0bb"/><path d="M95.132 21.731a5.09 5.09 0 01-1.1 3.014l-9.642 12.63a85.771 85.771 0 01-7.524 8.6l-8.024 8.024-5.306 2.88 5.278 5.278 5.306-2.88 8.024-8.024a85.781 85.781 0 007.524-8.6l9.642-12.63a5.165 5.165 0 00-4.178-8.292z" fill="#01cedb"/><path d="M56.096 55.206l-15.395 19.5a1.1 1.1 0 00.086 1.458l5.194 5.194a1.1 1.1 0 001.458.085l19.5-15.395a42.9 42.9 0 003.748-3.333l3.434-3.434-11.256-11.256-3.434 3.434a42.916 42.916 0 00-3.335 3.747z" fill="#e4f6ff"/><path d="M68.841 54.001l-3.434 3.434a42.856 42.856 0 01-3.748 3.333l-19.5 15.395a1.1 1.1 0 01-1.412-.047c.013.015.024.032.038.046l5.198 5.194a1.1 1.1 0 001.458.086l19.5-15.395a42.9 42.9 0 003.748-3.333l3.434-3.434z" fill="#32e4ef"/><path d="M40.003 68.896a9.826 9.826 0 00-5.425 10.522 4.718 4.718 0 01-4.259 5.718.6.6 0 00-.272 1.127 19.021 19.021 0 0019.175-.02 9.83 9.83 0 00-9.218-17.347z" fill="#aa7a63"/><path d="M52.387 72.224a9.746 9.746 0 00-4.331-3.527 9.83 9.83 0 01-4.111 12.268 18.933 18.933 0 01-10.434 2.583 4.72 4.72 0 01-3.192 1.587.6.6 0 00-.272 1.127 19.02 19.02 0 0019.175-.02 9.83 9.83 0 003.165-14.018z" fill="#986b54"/><path d="M74.135 48.953a1.5 1.5 0 01-1.058-2.555 4.56 4.56 0 012-1.211 1.924 1.924 0 001.321-1.321 4.907 4.907 0 013.209-3.209 1.925 1.925 0 001.322-1.322 4.565 4.565 0 011.211-2 1.5 1.5 0 012.116 2.116 1.667 1.667 0 00-.49.832 4.907 4.907 0 01-3.209 3.209 1.924 1.924 0 00-1.321 1.321 4.906 4.906 0 01-3.209 3.209 1.667 1.667 0 00-.831.489 1.492 1.492 0 01-1.061.442z" fill="#01cedb"/><path d="M17.445 50.415a1.5 1.5 0 01-1.5-1.5v-5.739a1.5 1.5 0 011.5-1.5h5.739a1.5 1.5 0 110 2.993h-4.242v4.242a1.5 1.5 0 01-1.497 1.504zm18.363 0a1.5 1.5 0 01-1.5-1.5v-4.242h-4.242a1.5 1.5 0 110-2.993h5.742a1.5 1.5 0 011.5 1.5v5.739a1.5 1.5 0 01-1.5 1.496zm0 12.619h-5.739a1.5 1.5 0 110-2.993h4.239v-4.242a1.5 1.5 0 012.993 0v5.739a1.5 1.5 0 01-1.493 1.496zm-12.823 0h-5.54a1.5 1.5 0 01-1.5-1.5v-5.739a1.5 1.5 0 012.993 0v4.242h4.043a1.5 1.5 0 010 2.993z" fill="#32e4ef"/><path d="M29.103 50.862h-.982v-.982a1.5 1.5 0 10-2.993 0v.982h-.982a1.5 1.5 0 000 2.993h.982v.982a1.5 1.5 0 102.993 0v-.982h.982a1.5 1.5 0 000-2.993z" fill="#01cedb"/></svg>