<svg xmlns="http://www.w3.org/2000/svg" width="239.811" height="243.169"><path fill="#dbdbdb" d="M28.35 11.909h72.175v110.666H28.35z"/><path fill="#fff" d="M32.284 16.342h30.477v49.223H32.284zm33.83 0h30.477v49.223H66.114zm-33.83 52.576h30.477v49.223H32.284zm33.83 0h30.477v49.223H66.114z"/><path fill="#ebebeb" d="M28.35 11.909h17.097v158.326H28.35z"/><path d="M42.202 19.435l.131 17.12.049 17.119.092 34.237-.092 34.237-.043 17.119-.136 17.119-.13-17.119-.049-17.119-.092-34.237.092-34.237.048-17.119zm-7.846 3.971l.13 15.285.076 15.285.06 30.569-.06 30.575-.075 15.286-.13 15.285-.136-15.285-.076-15.285-.06-30.575.06-30.569.076-15.285zm3.923 3.608l.13 17.9.049 17.894.092 35.8-.092 35.794-.049 17.9-.13 17.894-.136-17.894-.043-17.9-.092-35.794.092-35.8.049-17.894zm-6.847-6.673l.134 18.73.049 18.73.087 37.465-.087 37.465-.049 18.736-.136 18.73-.13-18.73-.049-18.735-.085-37.466.087-37.465.049-18.73z" fill="#fff"/><path fill="#ebebeb" d="M100.525 170.235H83.428V11.909h17.097z"/><path d="M86.667 19.435l.139 17.12.049 17.119.087 34.237-.087 34.237-.049 17.117-.136 17.119-.13-17.119-.049-17.119-.092-34.237.092-34.237.046-17.117zm7.851 3.971l.13 15.285.076 15.285.065 30.569-.06 30.575-.076 15.285-.136 15.285-.13-15.284-.076-15.285-.065-30.575.065-30.569.076-15.285zm-3.924 3.608l.13 17.9.049 17.894.092 35.8-.092 35.794-.049 17.9-.13 17.894-.136-17.894-.049-17.9-.087-35.794.092-35.8.049-17.894zm6.843-6.673l.13 18.73.049 18.73.092 37.465-.092 37.465-.043 18.735-.136 18.73-.13-18.73-.049-18.735-.092-37.465.092-37.465.049-18.73z" fill="#fff"/><circle cx="28.768" cy="28.768" r="28.768" transform="rotate(-45 109.08 -124.437)" fill="#ebebeb"/><path d="M169.384 68.088a28.757 28.757 0 11-.347-54.9 24.959 24.959 0 1012.062 7.309 28.757 28.757 0 01-11.736 47.6z" fill="#dbdbdb" opacity=".5"/><path d="M149.661 38.213a4.053 4.053 0 11-5.089-2.618 4.053 4.053 0 015.089 2.618zm26.169-8.366a4.053 4.053 0 11-5.089-2.626 4.053 4.053 0 015.089 2.626zm-11.503 2.387a6.104 6.104 0 11-11.628 3.717z" fill="#c7c7c7"/><path d="M164.208 36.287a6.1 6.1 0 01-9.061 2.9 7.309 7.309 0 019.061-2.9z" fill="#dbdbdb"/><circle cx="20.721" cy="20.721" r="20.721" transform="rotate(-76.32 162.75 -59.299)" fill="#ebebeb"/><path d="M201.646 117.658a20.721 20.721 0 1121.014-33.5 17.976 17.976 0 104.509 9.1 20.732 20.732 0 01-25.5 24.416z" fill="#dbdbdb" opacity=".5"/><path d="M220.338 96.899a2.914 2.914 0 11-.3-2.212 2.914 2.914 0 01.3 2.212zm-19.142-5.019a2.919 2.919 0 11-2.078-3.559 2.919 2.919 0 012.078 3.559zm1.969-.792a6.511 6.511 0 001.031 3.549 5.024 5.024 0 002.9 1.915 4.883 4.883 0 003.467-.19 7.217 7.217 0 002.773-2.474 5.61 5.61 0 01-2.415 3.147 4.883 4.883 0 01-2 .662 5.968 5.968 0 01-2.089-.206 6.386 6.386 0 01-1.888-.884 4.8 4.8 0 01-1.4-1.573 5.263 5.263 0 01-.385-3.945z" fill="#c7c7c7"/><path fill="#ebebeb" d="M172.987 137.273h47.878v66.255h-47.878z"/><path fill="#dbdbdb" d="M170.665 134.815h52.517v2.458h-52.517z"/><path fill="#ebebeb" d="M223.181 134.815h16.516v2.458h-16.516z"/><path fill="#dbdbdb" d="M220.864 137.273h16.223v66.255h-16.223z"/><path d="M215.699 167.946H178.13v-21.248h37.569zm-37.438-.136h37.309v-20.976h-37.31z" fill="#c7c7c7"/><path fill="#c7c7c7" d="M191.679 152.91h7.314v4.205h-7.314z"/><path d="M201.223 156.866h-7.45v-3.706h7.45zm-7.314-.136h7.174v-3.435h-7.178zm21.79 37.889H178.13v-21.248h37.569zm-37.439-.138h37.31v-20.974h-37.31z" fill="#c7c7c7"/><path fill="#c7c7c7" d="M191.679 179.584h7.314v4.205h-7.314z"/><path d="M201.223 183.539h-7.45v-3.706h7.45zm-7.314-.136h7.174v-3.435h-7.178z" fill="#c7c7c7"/><path d="M22.653 118.011l-7.124.147-3.614.065c-1.2 0-2.42 0-3.63.027h-.244v-.239l-.027-6.072v-.277h.27l7.184.033c2.393 0 4.786.06 7.184.087h.146v.146c0 1.025-.049 2.051-.071 3.066zm0 0l-.076-3.071c0-1.009-.065-2.008-.076-3l.152.146c-2.4.027-4.791.087-7.184.087l-7.184.038.271-.271-.033 6.072-.239-.244h3.55l3.57.065zm-8.013 7.656l-7.124.146-3.614.065c-1.21 0-2.42 0-3.63.027H.028v-.239l-.027-6.072v-.259h7.455c2.393 0 4.786.06 7.184.087h.146v.146c0 1.025-.049 2.051-.071 3.066zm0 0l-.081-3.076c0-1.009-.06-2.008-.071-3l.152.146c-2.4.027-4.791.087-7.184.087l-7.162.054.266-.266-.027 6.072-.239-.244c1.183 0 2.36 0 3.549.027l3.57.065zm222.909 0l-7.119.146-3.614.065c-1.21 0-2.425 0-3.635.027h-.239v-.239l-.033-6.072v-.259h7.439c2.4 0 4.791.06 7.184.087h.152v.146c0 1.025-.049 2.051-.071 3.066zm0 0l-.076-3.071c0-1.009-.06-2.008-.071-3l.147.146c-2.393.027-4.786.087-7.184.087l-7.184.033.271-.266-.027 6.072-.244-.244c1.183 0 2.366 0 3.554.027l3.57.065zM229.535 17.98l-7.119.152-3.614.06c-1.21 0-2.425 0-3.635.033h-.239v-.244l-.033-6.077v-.272h.271l7.184.033c2.393 0 4.791.065 7.184.092h.152v.146c0 1.031-.043 2.056-.071 3.066zm0 0l-.076-3.066c-.027-1.015-.06-2.013-.071-3.006l.146.146c-2.393 0-4.791.087-7.184.092l-7.195.033.271-.271v6.072l-.244-.244c1.183 0 2.366 0 3.554.033l3.57.06zm8.014 7.657l-7.119.152-3.614.06c-1.21 0-2.425 0-3.635.033h-.239v-.244l-.033-6.072v-.272h.271l7.184.033c2.4 0 4.791.065 7.184.092h.152v.146c0 1.031-.049 2.056-.071 3.066zm0 0l-.076-3.066c0-1.015-.06-2.013-.071-3.006l.147.146c-2.393 0-4.786.087-7.184.092l-7.184.033.271-.271-.027 6.072-.244-.244c1.183 0 2.366 0 3.554.033l3.57.06zM22.653 17.98l-7.124.152-3.614.06c-1.2 0-2.42 0-3.63.033h-.244v-.244l-.027-6.077v-.272h.27l7.2.038c2.393 0 4.786.065 7.184.092h.146v.141c0 1.031-.049 2.056-.071 3.066zm0 0l-.076-3.066c0-1.015-.065-2.013-.076-3.006l.152.146c-2.4 0-4.791.087-7.184.092l-7.184.033.271-.271-.033 6.072-.239-.248c1.183 0 2.36 0 3.549.033l3.57.06z" fill="#ebebeb"/><ellipse cx="62.837" cy="9.115" rx="62.837" ry="9.115" fill="#ebebeb" transform="translate(60.08 224.939)"/><path d="M6.023 203.528l29.224-.13 29.224-.049 58.447-.092 58.447.092 29.224.049 29.224.13-29.224.136-29.224.043-58.447.092-58.447-.092-29.224-.043z" fill="#263238"/><path d="M40.878 160.197a35.225 35.225 0 00-1.123 6.343c.06.109.049.5 0 .391 0 .347-.543.288-.543-.06v-.662c-1.237-1.541-3.038-2.518-4.5-3.858a8.426 8.426 0 01-2.463-3.917c-1.2-4.162-.076-8.573-1.525-12.724-1.253-3.576-3.5-6.69-5.4-9.929a23.614 23.614 0 01-3.635-11.047c-.114-3.076.25-7.173 2.594-9.479 2.48-2.442 5.556-.608 7.461 1.568 5.518 6.31 8.068 14.324 9.1 22.5a91.958 91.958 0 011.024 13.632 36.489 36.489 0 01-.988 7.238z" fill="#01cedb"/><path d="M39.782 168.203a78.344 78.344 0 00-.152-12.816v-.043c.071-3.467.342-6.918.206-10.385a61.626 61.626 0 00-1.525-11.134c0-.043-.076-.033-.065 0a72.706 72.706 0 011.2 10.89q.109 2.941-.049 5.871c-.033.635-.092 1.275-.13 1.921a68.507 68.507 0 00-10.309-27.276c-.071-.114-.271 0-.2.125a71.3 71.3 0 018.426 20.228c-2.653-4.91-6.652-8.947-9.625-13.668 0-.027-.054 0-.043.027 2.67 5.252 7.054 9.4 9.886 14.568a73.632 73.632 0 011.183 6.381 72.4 72.4 0 01.64 8.866 97.862 97.862 0 01-4.612-9.094c-.033-.087-.157-.027-.13.054a35.569 35.569 0 004.748 9.712c0 2.1-.049 4.2-.174 6.294-.326 5.594-1.286 11.118-1.725 16.69a.13.13 0 00.255.033 128.961 128.961 0 002.195-17.244z" fill="#263238"/><path d="M33.841 125.06c0-.038-.076 0-.06 0 1.02 2.827 1.6 5.692 2.333 8.589a.109.109 0 00.212-.038 31.037 31.037 0 00-2.485-8.551z" fill="#263238"/><path d="M59.788 136.905a42.176 42.176 0 01-2.349 4.829c-1.839 3.342-3.76 6.4-4.107 10.309a23.535 23.535 0 01-.738 5.155 15.323 15.323 0 01-2.056 4.037c-1.991 2.908-4.487 5.426-6.332 8.426a35.388 35.388 0 00-4.21 10.146c-.049.2-.353.147-.309-.049a.13.13 0 000-.043.081.081 0 010-.043 72.889 72.889 0 012.919-24.742 85.435 85.435 0 014.042-10.309 24.673 24.673 0 015.426-7.851c1.552-1.4 4.921-4.048 7.13-2.648 1.083.677 1.002 1.74.584 2.783z" fill="#01cedb"/><path d="M51.405 155.819a68.294 68.294 0 01-4.851 6.967c-.8 1.058-1.628 2.1-2.431 3.158-.38.5-.808.993-1.156 1.53.217-.879.434-1.753.657-2.632a104.338 104.338 0 013.717-12.523 85.321 85.321 0 015.789-11.356c.06-.092-.1-.163-.157-.07-1.758 2.9-3.549 5.795-5.03 8.85a46.715 46.715 0 00-2.138 5.252 81.3 81.3 0 012.843-11.242c0-.033-.038-.054-.049 0a38.437 38.437 0 00-2.952 11.671 68.54 68.54 0 00-1 3.255c-1.313 4.666-2.469 9.381-3.538 14.107a50.233 50.233 0 01.8-9.278c0-.071-.092-.087-.109 0a29.43 29.43 0 00-.808 9.767q-.6 2.713-1.183 5.426c-.819 3.847-1.823 7.759-2.306 11.666a.081.081 0 00.157.027c.57-2.105.917-4.292 1.384-6.419s.955-4.276 1.449-6.4a672.72 672.72 0 012.257-9.294 17.861 17.861 0 012.268-3.093 384.402 384.402 0 002.442-3.147 47.044 47.044 0 004.015-6.213c.028-.029-.043-.052-.07-.009z" fill="#263238"/><path d="M51.763 152.249a43.217 43.217 0 00-4.748 7.542c0 .033.038.065.06.033 1.6-2.5 3.163-5.024 4.758-7.526.006-.044-.043-.087-.07-.049z" fill="#263238"/><path d="M16.245 144.837c1.085 1.861 2.317 4.1 1.85 6.332-.293 1.416-1.329 2.566-1.514 4.01-.423 3.185 2.756 5.29 5.051 6.8 5.73 3.76 13.565 7.108 14.65 14.785.038.271.51.2.477-.065a.158.158 0 000-.049v-.043a29.419 29.419 0 00-.114-11.747 37.361 37.361 0 00-4.616-10.994c-3.451-5.882-7.1-11.9-12.311-16.408-1.443-1.248-4.4-3.489-5.551-.678s.776 5.761 2.078 8.057z" fill="#01cedb"/><path d="M21.487 157.284c3.8 4.113 9.837 6.419 13.109 11.025a46.12 46.12 0 00-10.073-18.925.146.146 0 01.19-.206 37.237 37.237 0 018.231 11.937 53.4 53.4 0 00-3.543-9.067.1.1 0 01.168-.1 34.672 34.672 0 013.8 10.19c4.308 10.428 4.71 22.658 3.8 33.64a.125.125 0 01-.25 0c.25-8.681.109-17.477-1.964-25.936-.043-.174-.092-.347-.136-.543-3.559-4.959-9.571-7.254-13.44-11.964.005-.018.075-.094.108-.051z" fill="#263238"/><path d="M20.607 153.752c2 1.829 3.955 3.7 5.968 5.529v.038a29.158 29.158 0 01-6.044-5.426c-.108-.103-.005-.217.076-.141zm-.314-7.931a62.75 62.75 0 005.968 8.209c0 .033 0 .081-.054.049a29.044 29.044 0 01-6.023-8.193.065.065 0 01.109-.065z" fill="#263238"/><path d="M29.273 203.528h17.46l-2.349-23.494H31.963z" fill="#455a64"/><path d="M31.524 183.848h13.24l-.385-3.814H31.958z" fill="#263238"/><path fill="#455a64" d="M46.19 181.179H29.82v-3.749h16.37z"/><path d="M114.094 178.477l15.442 20.4c2.973 3.885 5.507 7.341 6.652 9.251v.033a3.429 3.429 0 01.635 1.416v.043c-.543 1.666-30.889 26.315-32.24 26.82s-2.887-3.293-2.474-5.193 7.813-16.533 7.813-16.533l-15.22-20.545z" fill="#eb9481"/><path d="M126.367 194.668l3.169 4.183c2.973 3.885 5.507 7.341 6.652 9.251v.033a6.893 6.893 0 01.635 1.416v.043c-.543 1.666-30.889 26.315-32.24 26.82s-2.887-3.293-2.474-5.193 7.813-16.533 7.813-16.533l-3.283-4.2z" fill="#ebebeb"/><path d="M104.593 236.414c1.351-.5 31.682-25.149 32.24-26.82.222-.635-3.109-5.263-7.3-10.738l-.136-.174-19.745 15.686.277.326s-7.39 14.65-7.813 16.533 1.132 5.697 2.477 5.187z" fill="#01cedb"/><path d="M103.981 234.961c5.013-4.281 25.626-21.069 30.927-24.921.043-.033.071 0 .027.033-4.883 4.341-25.626 20.976-30.862 24.959-.146.097-.195.021-.092-.071zm4.357-18.872c1.7-2.013 4.417-3.7 7.119-3.516.108 0 .092.152 0 .184a36.516 36.516 0 00-6.918 3.581.168.168 0 01-.2-.25zm-.743 2.056c1.709-2.013 4.422-3.7 7.124-3.516.1 0 .092.152 0 .184a36.478 36.478 0 00-6.918 3.576.163.163 0 01-.206-.244zm-.738 2.057c1.7-2.013 4.417-3.706 7.119-3.521.1 0 .092.157 0 .19a36.807 36.807 0 00-6.918 3.576.163.163 0 01-.2-.244z" fill="#263238"/><path d="M128.391 196.182l-21.134 17.71s-24.319-31.074-29.8-46.738c-3.9-11.161 14.107-67.015 14.107-67.015l23.044-1.557s-14.916 53.792-13.261 59.017c2.037 6.364 27.044 38.583 27.044 38.583z" fill="#37474f"/><path d="M104.909 208.807c3.283-2.713 2.3-1.991 5.621-4.677 1.628-1.318 12.29-9.956 14.02-10.922.038 0 .081.038.054.071-1.329 1.465-12.148 9.918-13.792 11.2-3.369 2.626-2.431 1.834-5.827 4.422a.063.063 0 11-.076-.1zm16.467-16.462q-5.909-7.357-11.481-15.008c-3.69-5.057-7.33-10.19-10.64-15.5a16.684 16.684 0 01-1.9-3.841 10.1 10.1 0 01-.163-4.748c.515-3.142 1.172-6.267 1.829-9.381q1.986-9.376 4.514-18.632c1.682-6.164 3.565-12.273 5.556-18.345.244-.743.494-1.492.743-2.241.038-.109-.136-.152-.174-.043q-3.353 9.126-6.023 18.48t-4.761 18.745q-1.042 4.737-1.937 9.517a19.9 19.9 0 00-.543 4.731 10.412 10.412 0 001.134 3.977 31.963 31.963 0 002.328 3.825q1.313 1.975 2.659 3.939 2.713 3.955 5.534 7.829c3.744 5.122 7.6 10.2 11.736 15.008.5.591 1.015 1.177 1.519 1.763.016.056.114-.02.07-.075z" fill="#263238"/><path d="M114.622 98.582s-4.341 15.692-8.1 30.927c-4.185-8.677-11.336-23.635-13.74-29.477z" fill="#263238"/><path d="M142.032 134.351l13.77-18.1c3.212-3.684 6.093-6.864 7.737-8.367a.038.038 0 01.027 0c.619-.543 1.058-.9 1.264-.9h.038c1.747.212 31.964 25.008 32.723 26.229s-2.653 3.489-4.6 3.462-17.759-4.341-17.759-4.341l-14.65 18.106z" fill="#eb9481"/><path d="M164.835 106.959h.038c1.747.217 31.964 25.013 32.723 26.234s-2.653 3.489-4.59 3.462-17.764-4.341-17.764-4.341l-2.637 3.63c-4.981-4.031-14.064-11.394-19.576-16.023 1.535-2.17 2.778-3.646 2.783-3.652 3.207-3.69 6.082-6.864 7.726-8.361l.033-.027c.615-.591 1.054-.912 1.264-.922z" fill="#ebebeb"/><path d="M197.592 133.182c-.76-1.221-30.976-26.017-32.723-26.229-.662-.092-4.531 4.1-9.061 9.294l-.141.168 19.34 16.214.266-.336s15.811 4.341 17.759 4.341 5.331-2.236 4.56-3.452z" fill="#01cedb"/><path d="M196.291 134.072c-5.193-4.053-25.767-20.9-30.6-25.3-.038-.038 0-.065.027-.033 5.236 3.907 25.675 20.917 30.64 25.252.11.09.041.168-.067.081zm-19.36-.494c-2.311-1.27-4.514-3.592-4.883-6.278a.1.1 0 01.185-.049 36.694 36.694 0 004.883 6.066.163.163 0 01-.184.26zm2.159.315c-2.311-1.27-4.509-3.592-4.883-6.278a.1.1 0 01.179-.043 36.63 36.63 0 004.883 6.061.168.168 0 01-.179.26zm2.16.315c-2.306-1.27-4.509-3.592-4.883-6.272a.1.1 0 01.184-.049 36.43 36.43 0 004.883 6.061.168.168 0 01-.185.26z" fill="#263238"/><path d="M91.99 100.085v.027c.136.467 2.252 7.829 4.341 14.14 1.53 4.607 3.06 8.643 3.8 9.023.841.423 4.916 1.91 6.283 2.371 0 0 8.768 30.336 16.071 40.206 2.5 3.386 13.9 6.771 19.468 3.114 13.076-8.573 32.441-30.868 32.441-30.868l-22.562-18.443-15.974 21.161c-3.955-7.341-6.1-22.159-6.1-22.159s-.9-14.65-6.267-20.732z" fill="#37474f"/><path d="M168.955 140.795c-3.4-2.583-2.458-1.8-5.827-4.417-1.628-1.286-12.479-9.723-13.8-11.194a.043.043 0 01.049-.065c1.731.96 12.409 9.587 14.037 10.9 3.315 2.686 2.333 1.953 5.621 4.677a.063.063 0 11-.076.1zm-46.125-25.73c-.727-.136-1.492-.141-2.225-.206-.6-.054-1.188-.119-1.78-.206a7.645 7.645 0 01-3.18-1.085 7.54 7.54 0 01-2.214-2.979 130.59 130.59 0 00-1.025-1.964l-.515-.944a11.578 11.578 0 01-.629-1.134c0-.054-.114 0-.087.033a7.154 7.154 0 01.309.825c.119.32.233.646.358.966.217.543.434 1.139.667 1.709a14.009 14.009 0 001.449 2.979 6.5 6.5 0 005.095 2.311c.543.027 1.112.033 1.666.027a11.805 11.805 0 002.1-.13.1.1 0 00.011-.2zm-24.872 7.309a51.849 51.849 0 018.415 3.256.093.093 0 11-.065.174c-2.827-.993-5.7-1.932-8.475-3.082a.184.184 0 11.125-.347zm-2.084-18.773c0-.1.168-.13.174-.027.2 3.256.6 6.12 1.085 9.148.228 1.411 1.894 9.153 4.308 8.415.407-.125.586-.543.613-1.167a10.119 10.119 0 00-.488-2.377 62.478 62.478 0 01-.966-4.883 44.866 44.866 0 01-.543-9.262.081.081 0 01.157 0 84.286 84.286 0 001.628 12.724c.445 2.013 1.677 5.008-.429 5.464s-3.9-4.569-4.254-5.968a47.053 47.053 0 01-1.286-12.067z" fill="#263238"/><path d="M101.387 121.364a13.564 13.564 0 01.662 1.584 3.733 3.733 0 01.32 1.313.1.1 0 01-.168.049 4.558 4.558 0 01-.657-1.259c-.222-.488-.456-.971-.662-1.465a.277.277 0 01.5-.222zm48.065 6.229q-5.2 7.477-11.031 14.53-1.579 1.888-3.212 3.733c-3.532-4.883-5.252-10.721-6.625-16.538-.353-1.492-.684-2.99-1.026-4.487a48.646 48.646 0 01-1.025-4.829c-.212-1.687-.119-3.407-.271-5.106a39.253 39.253 0 00-.776-4.883 48.246 48.246 0 00-3.711-10.548c0-.043-.1 0-.081.033a64.932 64.932 0 013.256 9.555 41.73 41.73 0 01.9 5.041c.2 1.709.174 3.418.288 5.133a30.851 30.851 0 00.912 4.813c.342 1.492.673 2.99 1.015 4.482a82.614 82.614 0 002.409 8.719 32.647 32.647 0 004.585 8.926.163.163 0 00.26 0c3.983-4.574 7.786-9.311 11.307-14.27q1.508-2.116 2.957-4.276c.045-.033-.08-.104-.131-.028z" fill="#263238"/><path d="M136.025 140.697a7.18 7.18 0 00-.369.657l-.114.087a1.353 1.353 0 00-.206.184 2.621 2.621 0 00-.315.456 2.447 2.447 0 00-.239 1.085 2.659 2.659 0 01.358-1 2.765 2.765 0 01.288-.423.847.847 0 00.087-.109c0 .043-.043.081-.06.13a6.469 6.469 0 00-.293 1.243 4.483 4.483 0 000 1.2 6.293 6.293 0 00.233 1.167h.027a9.914 9.914 0 010-1.2c.049-.407.125-.781.179-1.172a10.209 10.209 0 01.222-1.134c.092-.38.168-.776.282-1.156.008-.031-.053-.053-.08-.015z" fill="#263238"/><path d="M111.181 63.276c-4.259 3.071-24.161 11.161-31.416 7.5-7.39-3.733-14.709-23.781-16.164-25.5-3.988-4.764 13.163-11.514 14.731-8.209 2.621 5.518 8.188 20.255 10.743 20.575 5.377.673 10.309-.027 18.719-.13 5.899-.083 8.069 2.373 3.387 5.764z" fill="#eb9481"/><path d="M80.134 40.71s6.978 15.735 8.551 16.169c2.621.749 16.82.255 21.92.342s10.011 4.6-2.067 9.11-22.246 6.858-28.817 5.382c-4.08-.922-15.285-18.611-15.285-18.611z" fill="#01cedb"/><path d="M80.134 40.71s6.978 15.735 8.551 16.169c2.621.749 16.82.255 21.92.342s10.011 4.6-2.067 9.11-22.246 6.858-28.817 5.382c-4.08-.922-15.285-18.611-15.285-18.611z" opacity=".1"/><path d="M67.474 55.983a158.7 158.7 0 0113.349-10.814c.054-.043.114.049.06.092-1.129.819-8.171 7-13.348 10.852-.061.017-.114-.081-.061-.13z" fill="#263238"/><path d="M116.043 60.818c-.217 1.6-2.252 3.554-7.5 5.513-12.073 4.514-22.246 6.858-28.811 5.382a8.05 8.05 0 01-3.152-2.29c9.305-2.007 31.736-6.836 39.463-8.605z" opacity=".1"/><path d="M64.703 47.069c1.682 1.253 13.565-5.741 13.836-7.873a8.383 8.383 0 00-.206-2.17 30.449 30.449 0 012.93-8.4c1.753-3.093 4.71-7.488 3.082-8.491-2.371-1.476-6.777 3.635-9.132 6.717a12.558 12.558 0 00-2.6-4.259c-2.87-2.414-15.35 9.012-14.633 12.767.7 3.619 5.041 10.461 6.723 11.709z" fill="#eb9481"/><path d="M76.287 27.248c-.673 1.834-2.452 0-2.452 0s1.921 3.256.494 4.883-3.445-.738-3.6-.9c.1.174 1.785 3.223.184 4.71s-3.348-1.129-3.456-1.3c.043.2.57 2.767-.906 3.619-2.534 1.46-4.053-5.084-6.109-6.251 0 0-2.377 3.256-2.469 3.348 0 0-1.574-6.2.157-8.888a2.04 2.04 0 012.415-.852s-.727-1.942.494-3.147c.629-.619 2.17-.163 2.17-.163a2.505 2.505 0 01.635-2.588 2.457 2.457 0 012.333-.222s.206-1.747 1.416-2.263c2.444-1.055 10.132 6.066 8.694 10.014z" fill="#eb9481"/><path d="M66.428 19.555s0-.065.027-.049a18.2 18.2 0 017.488 7.819c.049.109-.1.233-.179.13a37.291 37.291 0 00-7.336-7.9zM63.2 22.251c-.033 0 0-.076.043-.054a17.04 17.04 0 017.64 9.039c.043.136-.054.3-.114.146-1.064-2.552-4.898-7.042-7.569-9.131zm4.254 12.691a23.417 23.417 0 00-6.771-9.262c-.038-.033 0-.081.054-.065a15.29 15.29 0 014.688 4.341 10.581 10.581 0 012.17 4.954c-.022.059-.109.114-.141.032z" fill="#263238"/><path d="M73.9 27.248c.06.13-.19.076-.136.206.233.543 1.346 3.939.309 4.677-.836.591-2.208-.119-2.626-.6l-1.058-1.177.575 1.5a6.511 6.511 0 01.439 2.078 2.344 2.344 0 01-.6 1.823 1.34 1.34 0 01-1.671.233 4.015 4.015 0 01-1.394-1.476l-.977-1.628.385 1.85a6.316 6.316 0 01.125 1.568 2.55 2.55 0 01-.439 1.4 1.2 1.2 0 01-1.183.467 2.713 2.713 0 01-1.226-.857 21.5 21.5 0 01-1.894-2.713c-.3-.467-.6-.939-.928-1.394a3.994 3.994 0 00-1.161-1.194 4.291 4.291 0 011.031 1.28c.288.472.543.96.814 1.454a17.764 17.764 0 001.8 2.849 3.136 3.136 0 001.438 1.085 1.715 1.715 0 001.769-.624 3.087 3.087 0 00.591-1.736 6.793 6.793 0 00-.114-1.753l-.586.222a4.607 4.607 0 001.628 1.758 1.915 1.915 0 001.291.25 2.2 2.2 0 001.145-.608 2.935 2.935 0 00.76-2.306 6.972 6.972 0 00-.543-2.279l-.483.293a2.972 2.972 0 003.407.8c1.72-1.259-.104-4.819-.488-5.448z" fill="#263238"/><path d="M73.835 27.238a4.037 4.037 0 001.085.543.9.9 0 00.9-.184 1.823 1.823 0 00.418-.96c.065-.391.119-.8.152-1.226a3.022 3.022 0 01.271 1.264 1.812 1.812 0 01-.461 1.318 1.313 1.313 0 01-.705.331 1.411 1.411 0 01-.727-.141 2.127 2.127 0 01-.933-.944z" fill="#263238"/><path d="M126.357 106.313c-.114.087-35.116-3.8-35.4-4.248-.4-.662 10.027-36.945 18.036-44.394 2-1.861 7.542-1.031 9.766 1.373 11.044 11.934 7.994 46.96 7.598 47.269z" fill="#ebebeb"/><path d="M108.685 57.682l-13.44 49-6.875-4.932s11.215-31.741 14.471-36.793a35.758 35.758 0 015.844-7.275z" fill="#01cedb"/><path d="M108.685 57.682l-13.44 49-6.875-4.932s11.215-31.741 14.471-36.793a35.758 35.758 0 015.844-7.275z" opacity=".1"/><path d="M116.601 57.334s-.543 18.849-.543 23.277-1.025 28.605-1.025 28.605l15.925-2.9s-2.908-23.445-3.917-28.86-5.278-18.527-10.44-20.122z" fill="#01cedb"/><path d="M116.601 57.334s-.543 18.849-.543 23.277-1.025 28.605-1.025 28.605l15.925-2.9s-2.908-23.445-3.917-28.86-5.278-18.527-10.44-20.122z" opacity=".1"/><path d="M120.376 67.931c9.256 9.479 21.524 19.62 28.345 18.171 6.169-1.313 15.035-8.546 24.709-16.343 1.921-1.546-10.9-15.86-12.783-14-3.706 3.652-11.313 12.973-14.151 14-1.215.439-14.823-6.359-23.743-9.767-10.829-4.139-6.065 4.163-2.377 7.939z" fill="#eb9481"/><path d="M181.929 63.168c-2.539 3.055-11.351 8.784-13.565 9.094s-9.842-12.431-9-14.585 10.184-11.785 14.156-12.6 11.04 14.921 8.409 18.091z" fill="#eb9481"/><path d="M167.647 47.557c-.309 2.078 2.322 1.259 2.322 1.259s-3.505 2.094-3 4.341c.494 2.17 3.635 1.085 3.863 1-.184.114-3.353 2.127-2.6 4.341.776 2.317 3.738.667 3.934.543-.141.163-1.964 2.322-1.015 3.885 1.628 2.713 6.451-2.713 9-2.745 0 0 1.546 3.044 1.59 3.163 0 0 3.7-3.766 3.451-7.2a2.17 2.17 0 00-1.839-2.051s1.693-1.46 1.161-3.256c-.277-.912-1.975-1.281-1.975-1.281a2.762 2.762 0 00.733-2.773 2.645 2.645 0 00-2.084-1.416s.705-1.758-.168-2.87c-1.751-2.162-12.703.6-13.373 5.06z" fill="#eb9481"/><path d="M180.935 45.387a.033.033 0 000-.06 19.565 19.565 0 00-11.107 3.516c-.1.076-.027.271.1.212a40.027 40.027 0 0111-3.668zm1.667 4.216c.043 0 .033-.076 0-.076a18.361 18.361 0 00-11.883 4.59c-.109.1-.1.309.033.2 2.295-1.865 8.236-4.123 11.85-4.714zm-10.592 9.788a25.3 25.3 0 0111.183-5.247c.054 0 .033-.087 0-.092a16.459 16.459 0 00-6.663 1.666 11.259 11.259 0 00-4.6 3.559c-.067.059.009.173.08.114z" fill="#263238"/><path d="M169.97 48.8a12.072 12.072 0 00-1.763 1.557 4.3 4.3 0 00-1.145 1.937 1.422 1.422 0 00.157 1 2.046 2.046 0 00.738.738 2.545 2.545 0 002.051.054l1.628-.6-1.313 1.123a6.988 6.988 0 00-1.492 1.731 2.539 2.539 0 00-.374 2.035 1.449 1.449 0 001.454 1.085 4.373 4.373 0 002.078-.673l1.763-1.036-1.319 1.549a6.679 6.679 0 00-.928 1.422 2.762 2.762 0 00-.309 1.546 1.3 1.3 0 00.874 1.053 2.87 2.87 0 001.6-.174 22.736 22.736 0 003.185-1.563c.543-.288 1.053-.575 1.6-.841a4.264 4.264 0 011.715-.543 4.617 4.617 0 00-1.628.673c-.543.3-1.015.629-1.519.955a19.115 19.115 0 01-3.169 1.763 3.348 3.348 0 01-1.91.271 1.845 1.845 0 01-1.351-1.5 3.4 3.4 0 01.331-1.932 7.544 7.544 0 011.009-1.6l.445.515a5.04 5.04 0 01-2.452.819 2.105 2.105 0 01-1.346-.434 2.344 2.344 0 01-.77-1.167 3.207 3.207 0 01.472-2.572 7.812 7.812 0 011.671-1.883l.309.543a3.011 3.011 0 01-2.534-.2 2.534 2.534 0 01-.868-.955 1.845 1.845 0 01-.141-1.291 4.411 4.411 0 011.362-2 10.5 10.5 0 011.889-1.405z" fill="#263238"/><path d="M160.648 55.755s4.791-16.164 10.19-11.194c1.628 1.476 6.43 9.452 4.851 10.456-2.046 1.291-4.682-1.666-6.044-3.8 0 0-.857 5.724-5.019 6.321a4.183 4.183 0 01-3.977-1.785z" fill="#eb9481"/><path d="M170.366 44.177a8.849 8.849 0 011.839 1.791 18.984 18.984 0 011.481 2.116 29.623 29.623 0 012.355 4.6 4.884 4.884 0 01.326 1.329 1.845 1.845 0 01-.1.776 1.345 1.345 0 01-.212.38 1.4 1.4 0 01-.32.282 2.17 2.17 0 01-1.476.288 4.162 4.162 0 01-1.324-.488 7.792 7.792 0 01-2.008-1.747 17.364 17.364 0 01-1.531-2.107l.543-.125a10.667 10.667 0 01-.543 1.9 9.266 9.266 0 01-.884 1.747 6.684 6.684 0 01-1.3 1.465 5.089 5.089 0 01-1.687.944 5.8 5.8 0 001.546-1.085 7.055 7.055 0 001.118-1.508 9.707 9.707 0 00.749-1.72 10.271 10.271 0 00.412-1.812l.092-.76.45.635a19.7 19.7 0 001.541 1.98 7.737 7.737 0 001.856 1.579 2.115 2.115 0 002.056.217c.515-.271.315-1.188.054-1.942a23.727 23.727 0 00-.977-2.322 39.138 39.138 0 00-1.123-2.279 16.286 16.286 0 00-2.933-4.134z" fill="#263238"/><path d="M158.765 57.584s-11.221 11.443-12.859 11.34c-2.713-.174-19.2-7.992-24.036-9.62s-10.016-.667-2.377 8.361c8.622 10.184 18.274 19.256 28.252 19.267 5.377 0 22.121-11.687 22.121-11.687z" fill="#01cedb"/><path d="M158.765 57.584s-11.221 11.443-12.859 11.34c-2.713-.174-19.2-7.992-24.036-9.62s-10.016-.667-2.377 8.361c8.622 10.184 18.274 19.256 28.252 19.267 5.377 0 22.121-11.687 22.121-11.687z" opacity=".1"/><path d="M165.579 76.216a154.908 154.908 0 00-8.958-14.65c-.033-.06-.119 0-.081.065.787 1.15 5.355 9.332 8.947 14.65.045.071.131 0 .092-.065zm-38.93-.798a9.688 9.688 0 01-.716-.846c-.266-.288-.543-.575-.8-.863a37.857 37.857 0 01-1.552-1.666c-1.025-1.112-2.116-2.17-3.18-3.256.971 1.172 1.926 2.349 2.979 3.451l.071.076-.619-.418c-.429-.288-.857-.575-1.281-.868 0 0-.054.027-.033.043a15.67 15.67 0 001.894 1.345l.315.184 1.188 1.232c.271.277.543.543.825.825s.619.488.868.787c.015.077.107.012.041-.026z" fill="#263238"/><path d="M109.851 64.322c1.66.4 5.751-2.051 7.629-4.422.125-.163.168-2.1.336-4.449.1-1.427.255-3.011.5-4.449l-9.376.667a23.23 23.23 0 01-.065 5.659 3.023 3.023 0 01-.163.581v.1c-.402 1.099-1.46 5.684 1.139 6.313z" fill="#eb9481"/><path d="M108.715 57.909a.343.343 0 00-.033.1 5.735 5.735 0 00.917.206c5.144.749 7.45-5.285 8.036-7.162l-8.681.613a23.33 23.33 0 01-.054 5.67 3.726 3.726 0 01-.184.575z" fill="#263238"/><path d="M122.477 40.222c.136 3.38-3.9 12-6.652 13.434-4 2.078-9.365.971-10.852-3.565-1.422-4.4 4.026-15.54 7-16.717 4.394-1.742 10.303 1.861 10.504 6.848z" fill="#eb9481"/><path d="M114.913 42.061a7.757 7.757 0 01-.624-.575 1.356 1.356 0 01-.543-.705.445.445 0 01.277-.461 1.085 1.085 0 011.047.331 1.579 1.579 0 01.57.993.467.467 0 01-.727.418zm-5.794-2.485a8.248 8.248 0 00.841.13 1.389 1.389 0 00.879-.033.445.445 0 00.19-.5 1.085 1.085 0 00-.917-.613 1.563 1.563 0 00-1.134.174.467.467 0 00.141.841z" fill="#a6a6a6"/><path d="M111.552 48.723a.944.944 0 01-.646.136 1.72 1.72 0 01-.57-.418h-.038a.874.874 0 00.613.64.667.667 0 00.684-.32c.031-.016-.013-.049-.043-.038zm.144-2.023a2.17 2.17 0 01-1.725.315 2.86 2.86 0 01-.732-.277.748.748 0 01-.13-.076.543.543 0 01-.119-.076.157.157 0 01-.065-.179.293.293 0 01.027-.06v-.049c.184-.461.543-1.129.543-1.129-.2 0-1.2 0-1.085-.206a32.652 32.652 0 013.386-5.73c.038-.06.136 0 .1.06-.846 1.872-2.018 3.586-2.9 5.453a3.689 3.689 0 011.085.119c.054.043-.684 1.281-.749 1.5a3.033 3.033 0 002.355.244c.03.021.063.059.009.091z" fill="#263238"/><path d="M109.602 46.629a2.561 2.561 0 00.635 1.145 1.167 1.167 0 00.635.32c.543.081.722-.347.792-.754a2.859 2.859 0 00.033-.657 3.37 3.37 0 01-2.095-.054z" fill="#263238"/><path d="M110.237 47.768a1.167 1.167 0 00.635.32c.543.081.722-.347.792-.754a1.21 1.21 0 00-1.427.434z" fill="#ff9bbc"/><path d="M114.235 43.498a.977.977 0 00-.038-.51.716.716 0 00-.4-.385.64.64 0 00-.543.081 1.085 1.085 0 00-.331.374 2.589 2.589 0 00-.119.282 1.346 1.346 0 00-.076.619 2.234 2.234 0 01.174-.423 3.17 3.17 0 01.222-.347c.168-.222.391-.38.591-.293a.543.543 0 01.3.581 4.585 4.585 0 01-.125.868 2.04 2.04 0 00.345-.847zm-5.719-2.62a1.015 1.015 0 01.4-.32.7.7 0 01.543 0 .635.635 0 01.331.456 1.085 1.085 0 01-.049.5 1.807 1.807 0 01-.114.282 1.373 1.373 0 01-.4.483 1.89 1.89 0 00.184-.418 2.713 2.713 0 00.1-.4c.043-.277 0-.543-.2-.629a.543.543 0 00-.629.184 4.415 4.415 0 00-.543.695 1.931 1.931 0 01.374-.83z" fill="#263238"/><path d="M113.909 38.799a8.013 8.013 0 01-1.009-.3c-.331-.141-.629-.342-.96-.472a5.817 5.817 0 00-1.991-.3c-.06 0-.065.038 0 .038a4.987 4.987 0 012.056.477 6.223 6.223 0 001.628.646 6.272 6.272 0 013.462 1.78 6.31 6.31 0 00-3.186-1.869zm.354-.851a7.43 7.43 0 01-.955-.288c-.315-.136-.6-.326-.912-.45a5.48 5.48 0 00-1.888-.288c-.054 0-.06.033 0 .038a4.7 4.7 0 011.948.45 5.866 5.866 0 001.536.613 5.968 5.968 0 013.3 1.666 5.968 5.968 0 00-3.029-1.741z" opacity=".2"/><path d="M109.293 35.718c2.387 3.31 7.895 1.584 7.895 1.584a3.662 3.662 0 002.713 3.435s-1.3 5.578.114 6.072c2.17.765 5.426-6.294 5.285-7.976a4.031 4.031 0 00-1.856-2.713 3.733 3.733 0 00-.7-2.653c-1.085-1.628-6.685-1.964-6.685-1.964a5.046 5.046 0 00-.667-2.219 1.411 1.411 0 00-1.98-.51 3.3 3.3 0 01.038 1.5c-.309 1.66-1.59 1.194-1.085-.222a2.328 2.328 0 011.026-1.28c-.3-1.156-1.221-1.834-2.029-1.557-1.467.506-4.051 5.758-2.069 8.503z" fill="#a6a6a6"/><path d="M112.228 46.152a2.6 2.6 0 01-.792-3.592 2.6 2.6 0 111.378 3.869 2.409 2.409 0 01-.586-.277zm-.5-3.407a2.252 2.252 0 103.109-.684 2.138 2.138 0 00-.5-.239 2.257 2.257 0 00-2.608.922zm-4.47 1.074c-.966-.45-1.264-1.877-.657-3.174a3.114 3.114 0 011.264-1.416 1.628 1.628 0 012.512 1.172 3.076 3.076 0 01-.266 1.877 2.485 2.485 0 01-2.713 1.628zm.776-4.286a2.745 2.745 0 00-1.118 1.259c-.543 1.123-.3 2.344.488 2.713s1.866-.244 2.393-1.373a2.762 2.762 0 00.239-1.666 1.389 1.389 0 00-.732-1.047l-.119-.049a1.438 1.438 0 00-1.15.163z" fill="#455a64"/><path d="M111.387 42.869l.315-.146c-.217-.467-.857-1.253-1.72-.906l.13.32c.776-.315 1.254.694 1.275.732zm10.217 5.497h.347c0-.157-.081-1.59-.732-2.035s-5.019-1.98-5.2-2.051l-.119.331c1.264.45 4.655 1.687 5.127 2.008s.561 1.356.577 1.747z" fill="#455a64"/><path d="M118.608 47.091s2.859-2.333 3.977-1.232-1.628 4.883-3.331 5.024a1.628 1.628 0 01-1.872-1.449z" fill="#eb9481"/><path d="M121.772 46.922c.027 0 0 .043 0 .043a4.14 4.14 0 00-2.773 1.91.906.906 0 011.373.13.038.038 0 01-.043.054 1.009 1.009 0 00-1.167.033 4.955 4.955 0 00-.754.716c-.081.087-.244 0-.174-.119.386-1.432 2.013-3.06 3.538-2.767z" fill="#263238"/><path d="M108.636 57.736l2.008 5.616 7.14-6.733 1.861 2.322s-7.151 10.852-7.173 10.353l-2.094-4.883-3.418 3.19.586-8.318z" fill="#ebebeb"/><path d="M107.014 63.498c.146-1.367.25-2.751.456-4.113a.05.05 0 01.1 0c.222 1.335-.353 6.571-.4 7.829.141-.141 3.163-2.8 3.19-2.756.461.776 2 4.341 2.105 4.634 1.129-1.725 5.426-7.987 6.777-9.609a.045.045 0 01.076.049c-1.009 1.829-6.733 10.266-6.815 10.239a52.829 52.829 0 01-2.17-5.133 40.634 40.634 0 01-3.576 3.4 43.349 43.349 0 01.255-4.541z" fill="#263238"/><path d="M139.661 128.673l-2.192.407-.488 2.306-.488-2.306-2.187-.407 2.176-.532.5-2.181.5 2.181zM102.375 25.74l-2.192.407-.488 2.306-.488-2.306-2.187-.407 2.176-.532.5-2.181.5 2.181zM76.114 99.808l-2.192.4-.488 2.306-.488-2.306-2.187-.4 2.176-.532.5-2.181.5 2.181zm62.158-9.295l-2.185.407-.488 2.306-.49-2.306-2.192-.407 2.181-.532.5-2.181.5 2.181zm28.28-9.11l-1.221.222-.277 1.291-.271-1.291-1.221-.222 1.215-.3.277-1.221.282 1.221zm-75.826-4.248l-1.221.228-.271 1.291-.277-1.291-1.221-.228 1.215-.3.282-1.215.277 1.215zm37.905-42.918l-1.226.228-.271 1.286-.271-1.286-1.226-.228 1.221-.3.277-1.215.277 1.215zm28.529 68.023l-1.221.222-.271 1.291-.277-1.291-1.221-.222 1.215-.3.282-1.221.277 1.221zm-9.946 2.48l-1.226.222-.271 1.291-.277-1.291-1.221-.222 1.215-.3.282-1.221.277 1.221zm0-51.356l-1.226.228-.271 1.291-.277-1.291-1.221-.228 1.215-.3.282-1.215.277 1.215zm-53.092-1.845l-1.226.222-.271 1.291-.277-1.291-1.221-.222 1.221-.3.277-1.221.277 1.221zm-30.14-1.334l-1.221.228-.277 1.291-.271-1.291-1.221-.228 1.215-.3.277-1.215.282 1.215zm16.44 60.65l-1.221.228-.271 1.286-.277-1.286-1.221-.228 1.215-.3.282-1.215.277 1.215zm61.746-.353a.353.353 0 10.353.353.353.353 0 00-.353-.353zm5.388-49.728a.358.358 0 10.314.355.358.358 0 00-.314-.355zM85.153 30.351a.358.358 0 10.314.355.358.358 0 00-.314-.355zM58.095 52.679a.353.353 0 10.353.353.353.353 0 00-.353-.353zM78.93 87.8a.358.358 0 10.314.355.358.358 0 00-.314-.355zm-10.499-6.484a.25.25 0 10.25.25.25.25 0 00-.25-.25zm19.512-42.283a.25.25 0 10.25.25.25.25 0 00-.25-.25zm7.438 35.224a.255.255 0 10.218.252.255.255 0 00-.218-.252zm-23.136 45.415a.255.255 0 10.218.252.255.255 0 00-.218-.252zm62.381-5.681a.684.684 0 10.623.681.684.684 0 00-.623-.681zm40.862-39.148a.678.678 0 10.678.678.678.678 0 00-.678-.678zm-68.604-53.9a.684.684 0 10.623.681.684.684 0 00-.623-.681zm-8.926 27.086a.684.684 0 10.623.681.684.684 0 00-.623-.681zm-22.501 69.337a.684.684 0 10.623.681.684.684 0 00-.623-.681z" fill="#01cedb"/></svg>